<?xml version="1.0" standalone="no"?>
<!DOCTYPE svg PUBLIC "-//W3C//DTD SVG 20010904//EN"
 "http://www.w3.org/TR/2001/REC-SVG-20010904/DTD/svg10.dtd">
<svg version="1.0" xmlns="http://www.w3.org/2000/svg"
 width="1024.000000pt" height="1024.000000pt" viewBox="0 0 1024.000000 1024.000000"
 preserveAspectRatio="xMidYMid meet">
<metadata>
Created by potrace 1.11, written by Peter Selinger 2001-2013
</metadata>
<g transform="translate(0.000000,1024.000000) scale(0.100000,-0.100000)"
fill="#000000" stroke="none">
<path d="M4839 10176 c-2 -2 -49 -7 -104 -10 -55 -3 -111 -8 -125 -10 -14 -3
-56 -7 -93 -11 -37 -3 -78 -8 -90 -11 -12 -3 -35 -6 -52 -8 -60 -7 -122 -18
-195 -33 -41 -8 -84 -17 -95 -19 -11 -2 -31 -6 -45 -9 -14 -3 -35 -7 -48 -10
-13 -2 -32 -7 -42 -10 -10 -3 -27 -8 -38 -10 -59 -11 -235 -62 -372 -106 -850
-279 -1621 -788 -2226 -1470 -56 -64 -240 -294 -274 -344 -19 -27 -39 -55 -45
-62 -20 -24 -31 -39 -89 -128 -273 -414 -497 -888 -631 -1335 -25 -84 -65
-230 -69 -252 -2 -13 -11 -50 -19 -83 -16 -61 -52 -247 -62 -320 -3 -22 -10
-65 -15 -95 -11 -66 -19 -135 -37 -330 -15 -160 -7 -801 11 -895 2 -11 7 -56
11 -100 4 -44 8 -82 10 -85 2 -3 6 -30 9 -60 4 -30 8 -62 11 -70 2 -8 6 -31 9
-50 5 -32 10 -59 21 -115 2 -11 11 -54 20 -95 9 -41 18 -84 21 -95 35 -177
183 -620 281 -845 45 -103 188 -388 238 -475 32 -55 63 -109 69 -119 75 -133
293 -439 436 -612 127 -153 382 -422 484 -509 6 -5 34 -30 61 -55 100 -89 326
-271 385 -309 14 -8 27 -18 30 -22 5 -5 300 -199 345 -226 279 -167 662 -344
965 -446 100 -34 358 -110 410 -122 197 -42 317 -67 370 -75 36 -5 76 -12 90
-14 14 -3 45 -7 70 -10 51 -6 121 -15 165 -21 90 -13 281 -20 525 -20 351 0
455 7 745 50 201 30 203 31 360 66 72 17 137 32 146 34 141 31 431 126 634
207 233 93 618 287 785 397 14 9 33 21 42 26 98 57 491 345 538 395 3 3 21 18
40 34 161 131 425 399 594 601 497 597 843 1278 1030 2030 34 140 41 169 51
235 3 19 8 43 11 53 3 10 7 31 10 47 8 53 13 84 18 115 5 30 20 149 30 235 28
240 29 872 2 1040 -2 14 -7 54 -11 90 -11 114 -53 361 -85 500 -17 74 -33 143
-35 153 -20 90 -108 380 -125 409 -6 10 -10 24 -10 31 0 48 -241 585 -339 757
-24 41 -52 91 -63 110 -11 19 -29 47 -39 62 -11 14 -19 29 -19 33 0 10 -179
272 -258 377 -185 247 -447 535 -652 718 -98 87 -266 225 -350 289 -52 39
-100 75 -105 79 -36 29 -269 180 -365 236 -63 37 -122 72 -130 77 -52 32 -437
216 -545 259 -243 98 -565 201 -735 235 -8 2 -33 8 -55 13 -22 6 -53 13 -70
16 -45 7 -85 15 -135 26 -25 5 -62 12 -82 15 -92 13 -115 16 -138 20 -14 3
-50 7 -80 10 -52 5 -119 12 -185 21 -40 5 -701 15 -706 10z"/>
</g>
</svg>
